{
	"asset":{
		"version":"2.0",
		"generator":"Created using the official Cinema 4D glTF Exporter 1.000x284978"
	},
	"scenes":[{
		"nodes":[0]
	}],
	"nodes":[{
		"name":"CAMION MINERO.1",
		"children":[1,
		2,
		3]
	},
	{
		"name":"CARROCERIA",
		"translation":[0.012154514901340008,
		272.4178466796875,
		93.17770385742188],
		"mesh":0,
		"rotation":[0.0,
		0.0,
		0.0,
		-1.0],
		"scale":[1.0,
		1.0,
		1.0]
	},
	{
		"name":"RUEDA.1",
		"translation":[-2.842170943040401e-14,
		97.269775390625,
		238.79446411132813],
		"mesh":1,
		"rotation":[0.7071067690849304,
		0.0,
		0.0,
		-0.7071067690849304],
		"scale":[1.0,
		1.0,
		1.0]
	},
	{
		"name":"RUEDA.2",
		"translation":[-2.842170943040401e-14,
		97.269775390625,
		-233.73165893554688],
		"mesh":2,
		"rotation":[0.0,
		0.0,
		0.0,
		-1.0],
		"scale":[1.0,
		1.0,
		1.0]
	}],
	"meshes":[{
		"name":"CARROCERIA",
		"primitives":[{
			"attributes":{
				"POSITION":1,
				"NORMAL":2,
				"TEXCOORD_0":3
			},
			"indices":0,
			"material":0
		}]
	},
	{
		"name":"RUEDA.1",
		"primitives":[{
			"attributes":{
				"POSITION":5,
				"NORMAL":6,
				"TEXCOORD_0":7
			},
			"indices":4,
			"material":0
		}]
	},
	{
		"name":"RUEDA.2",
		"primitives":[{
			"attributes":{
				"POSITION":9,
				"NORMAL":10,
				"TEXCOORD_0":11
			},
			"indices":8,
			"material":0
		}]
	}],
	"accessors":[{
		"bufferView":0,
		"type":"SCALAR",
		"componentType":5123,
		"byteOffset":0,
		"count":8292,
		"min":[0],
		"max":[5678]
	},
	{
		"bufferView":1,
		"type":"VEC3",
		"componentType":5126,
		"byteOffset":0,
		"count":5679,
		"min":[-258.0165100097656,
		-211.8369140625,
		-443.2163391113281],
		"max":[258.0165100097656,
		211.8369140625,
		443.2163391113281]
	},
	{
		"bufferView":1,
		"type":"VEC3",
		"componentType":5126,
		"byteOffset":12,
		"count":5679,
		"min":[-1.0,
		-0.9999983906745911,
		-1.0],
		"max":[1.0,
		0.9996659159660339,
		0.9999685883522034]
	},
	{
		"bufferView":1,
		"type":"VEC2",
		"componentType":5126,
		"byteOffset":24,
		"count":5679,
		"min":[0.006671226117759943,
		0.006673365831375122],
		"max":[0.985906720161438,
		0.9840294122695923]
	},
	{
		"bufferView":2,
		"type":"SCALAR",
		"componentType":5123,
		"byteOffset":0,
		"count":7266,
		"min":[0],
		"max":[4719]
	},
	{
		"bufferView":3,
		"type":"VEC3",
		"componentType":5126,
		"byteOffset":0,
		"count":4720,
		"min":[-214.5236053466797,
		-98.164306640625,
		-98.16442108154297],
		"max":[214.5236053466797,
		98.164306640625,
		98.16442108154297]
	},
	{
		"bufferView":3,
		"type":"VEC3",
		"componentType":5126,
		"byteOffset":12,
		"count":4720,
		"min":[-1.0,
		-0.9997076988220215,
		-0.9996700882911682],
		"max":[1.0,
		0.999707818031311,
		0.9996700882911682]
	},
	{
		"bufferView":3,
		"type":"VEC2",
		"componentType":5126,
		"byteOffset":24,
		"count":4720,
		"min":[0.007134369574487209,
		0.006673365831375122],
		"max":[0.9933287501335144,
		0.9933265447616577]
	},
	{
		"bufferView":4,
		"type":"SCALAR",
		"componentType":5123,
		"byteOffset":0,
		"count":14532,
		"min":[0],
		"max":[9551]
	},
	{
		"bufferView":5,
		"type":"VEC3",
		"componentType":5126,
		"byteOffset":0,
		"count":9552,
		"min":[-232.4713592529297,
		-98.16442108154297,
		-98.164306640625],
		"max":[232.4713592529297,
		98.16442108154297,
		98.164306640625]
	},
	{
		"bufferView":5,
		"type":"VEC3",
		"componentType":5126,
		"byteOffset":12,
		"count":9552,
		"min":[-1.0,
		-0.9993557333946228,
		-0.9994276762008667],
		"max":[1.0,
		0.9993557929992676,
		0.9994274973869324]
	},
	{
		"bufferView":5,
		"type":"VEC2",
		"componentType":5126,
		"byteOffset":24,
		"count":9552,
		"min":[0.007134369574487209,
		0.006673365831375122],
		"max":[0.9933287501335144,
		0.9931026697158814]
	}],
	"bufferViews":[{
		"buffer":0,
		"byteOffset":0,
		"byteLength":16584,
		"target":34963
	},
	{
		"buffer":0,
		"byteOffset":16584,
		"byteLength":181728,
		"target":34962,
		"byteStride":32
	},
	{
		"buffer":1,
		"byteOffset":0,
		"byteLength":14532,
		"target":34963
	},
	{
		"buffer":1,
		"byteOffset":14532,
		"byteLength":151040,
		"target":34962,
		"byteStride":32
	},
	{
		"buffer":2,
		"byteOffset":0,
		"byteLength":29064,
		"target":34963
	},
	{
		"buffer":2,
		"byteOffset":29064,
		"byteLength":305664,
		"target":34962,
		"byteStride":32
	}],
	"buffers":[{
		"uri":"data:application/octet-stream;base64,",
		"byteLength":198312
	},
	{
		"uri":"data:application/octet-stream;base64,",
		"byteLength":165572
	},
	{
		"uri":"data:application/octet-stream;base64,",
		"byteLength":334728
	}],
	"images":[{
		"uri":"data:image/jpeg;base64,"
	},
	{
		"uri":"data:image/jpeg;base64,"
	}],
	"samplers":[{
		"magFilter":9729,
		"minFilter":9729,
		"wrapS":10497,
		"wrapT":10497
	},
	{
		"magFilter":9729,
		"minFilter":9729,
		"wrapS":10497,
		"wrapT":10497
	}],
	"textures":[{
		"sampler":0,
		"source":0
	},
	{
		"sampler":1,
		"source":1
	}],
	"materials":[{
		"pbrMetallicRoughness":{
			"baseColorTexture":{
				"index":0
			},
			"baseColorFactor":[0.8,
			0.8,
			0.8,
			1.0],
			"metallicFactor":0.0,
			"roughnessFactor":0.5
		},
		"occlusionTexture":{
			"index":1,
			"strength":1.0
		},
		"emissiveFactor":[0.0,
		0.0,
		0.0],
		"alphaMode":"OPAQUE",
		"doubleSided":false,
		"name":"TOLVA_ON"
	}]
}
